<svg xmlns="http://www.w3.org/2000/svg" viewBox="0 0 777.1 316.8"><defs><style>.cls-1{fill:#fff;}</style></defs><g id="Layer_2" data-name="Layer 2"><g id="Layer_1-2" data-name="Layer 1"><g id="layer1"><g id="flowRoot2574"><path id="path817" class="cls-1" d="M455.12,219.32l-.35-64.58-31.33,52.57H408.12L377,156.48v62.84H345.11V97.48h28.37L416.3,167.8l41.78-70.32h28.37l.35,121.84Z"/><path id="path819" class="cls-1" d="M511,97.48h34.47V219.32H511Z"/><path id="path821" class="cls-1" d="M596.1,124.8H558.68V97.48H667.82V124.8H630.57v94.52H596.11Z"/><path id="path823" class="cls-1" d="M723.14,221.76a112.51,112.51,0,0,1-28.72-3.66q-13.92-3.65-22.63-9.74l11.31-25.42a73.36,73.36,0,0,0,19,8.71,72.32,72.32,0,0,0,21.23,3.3q19.85,0,19.85-9.92,0-5.22-5.75-7.66-5.56-2.61-18.1-5.39a186.46,186.46,0,0,1-23-6.27,39.44,39.44,0,0,1-15.84-11q-6.62-7.49-6.61-20.19a34.59,34.59,0,0,1,6.09-20q6.09-9,18.1-14.27Q710.27,95,727.84,95a101.85,101.85,0,0,1,23.67,2.78,71,71,0,0,1,20.54,7.84l-10.62,25.58q-17.4-9.39-33.77-9.39-10.26,0-15,3.13-4.71,3-4.7,7.83t5.57,7.31q5.56,2.44,17.92,5a154.84,154.84,0,0,1,23,6.44,38,38,0,0,1,15.84,10.79q6.8,7.32,6.79,20A34.25,34.25,0,0,1,771,202.26q-6.09,8.88-18.28,14.28-12.18,5.22-29.59,5.22Z"/></g><path id="path2577-2-7" class="cls-1" d="M120.08,0h0C103.89,0,82.79,9.16,63.5,24.52a32.54,32.54,0,0,0-17.39,42A43.44,43.44,0,0,0,12.91,122a43.38,43.38,0,0,0-5.24,55.51A43,43,0,0,0,0,202.19a43.48,43.48,0,0,0,22.25,37.9A48.25,48.25,0,0,0,21.9,246,49,49,0,0,0,56,292.55a48.89,48.89,0,0,0,86-2.9,38.29,38.29,0,0,0,5-16.94H153v24.72h10.27V272.71h13.27v24.72h10.26V272.71h13.28v24.72h10.26V272.71h13.28v24.72h10.26V272.65A37.79,37.79,0,0,0,269.51,235v-.82h24.71V223.88H269.51V210.61h24.71V200.34H269.51V187.07h24.71V176.81H269.51V163.53h24.71V153.27H269.51V140h24.71V129.73H269.51V116.45h24.71V106.19H269.51V92.92h24.71V82.66H269.51v-.82a37.79,37.79,0,0,0-35.64-37.69V19.37H223.61V44.09H210.33V19.37H200.07V44.09H186.79V19.37H176.53V44.09H163.26V19.37H153V44.09h-5.88V27c0-7-2.57-13.21-5.13-15.77A27,27,0,0,0,120.08,0Zm0,10.26A16.79,16.79,0,0,1,136.85,27v66.4s-6.1-5.85-16.77-5.85a5.13,5.13,0,1,0,0,10.26c6.18,0,16.77,3.47,16.77,16.77V238a48.92,48.92,0,0,0-26-17.29,5.13,5.13,0,1,0-2.66,9.91A38.64,38.64,0,1,1,64,285.83a5.15,5.15,0,0,0-3.21-2.56,38.65,38.65,0,0,1-27.82-45A5.14,5.14,0,0,0,30,232.5a33.17,33.17,0,0,1-15.25-47,43.29,43.29,0,0,0,28.7,10.86,5.13,5.13,0,0,0,0-10.26,33.17,33.17,0,0,1-21.26-58.65,5.13,5.13,0,0,0,1.46-5.87,33.18,33.18,0,1,1,63.93-12.46,5.13,5.13,0,1,0,10.26,0A43.48,43.48,0,0,0,57.19,65.79,22.23,22.23,0,0,1,67.52,34a26.79,26.79,0,0,1,8.77-1.81,22.1,22.1,0,0,1,20,12.54,5.13,5.13,0,1,0,9.23-4.49A32.78,32.78,0,0,0,83.8,22.79c13.09-8,26-12.53,36.28-12.53Zm27,44.09h84.64a27.32,27.32,0,0,1,27.49,27.49V235a27.32,27.32,0,0,1-27.49,27.49H147.11V219.33H202l15.54-15.54A15.38,15.38,0,0,0,235,179h0a15.31,15.31,0,0,0-10.88-4.48h0a15.34,15.34,0,0,0-13.88,22l-12.54,12.53H175.46V184.84L188,172.3a15.38,15.38,0,0,0,17.51-24.76,15.46,15.46,0,0,0-21.77,0,15.49,15.49,0,0,0-3,17.51L165.2,180.59v28.48H147.11V107.73h50.6l12.54,12.53a15.34,15.34,0,0,0,13.88,22h0A15.35,15.35,0,0,0,235,137.77h0A15.39,15.39,0,0,0,217.5,113q-7.77-7.77-15.54-15.54H147.11V54.35ZM54.4,104a5.14,5.14,0,0,0-5.14,5.13A43.5,43.5,0,0,0,87.07,152.2a22.29,22.29,0,0,1-21.73,17.49,5.13,5.13,0,0,0,0,10.26,32.55,32.55,0,0,0,32.14-27.63,43.11,43.11,0,0,0,26.27-12.78,5.13,5.13,0,1,0-7.33-7.18,33.19,33.19,0,0,1-56.89-23.23A5.13,5.13,0,0,0,54.4,104Zm169.73,17.72a5.15,5.15,0,0,1,3.63,1.54,5.06,5.06,0,0,1,0,7.25,5.11,5.11,0,0,1-3.63,1.54h0a5.13,5.13,0,0,1-3.63-1.53,5.17,5.17,0,0,1,3.63-8.8Zm-29.51,31.54a5.14,5.14,0,0,1,3.63,1.53,5.13,5.13,0,1,1-7.26,0A5.13,5.13,0,0,1,194.62,153.26Zm29.51,31.49h0a5.14,5.14,0,0,1,3.63,1.53,5.13,5.13,0,1,1-7.26,0,5.13,5.13,0,0,1,3.63-1.53Zm-120.47,6.83A43.5,43.5,0,0,0,60.21,235c0,.25,0,.5,0,.75a43,43,0,0,0-5.82-.41,5.14,5.14,0,1,0,0,10.27,33.22,33.22,0,0,1,33.18,33.18,5.14,5.14,0,0,0,10.27,0,43.51,43.51,0,0,0-27.19-40.27,34.43,34.43,0,0,1-.18-3.52,33.21,33.21,0,0,1,33.18-33.18,5.14,5.14,0,0,0,0-10.27Z"/></g></g></g></svg>