<svg xmlns="http://www.w3.org/2000/svg" xmlns:xlink="http://www.w3.org/1999/xlink" viewBox="0 0 485.82 93.83"><defs><style>.cls-1{fill:url(#linear-gradient);}.cls-2{fill:url(#linear-gradient-9);}.cls-3{fill:url(#linear-gradient-17);}.cls-4{fill:url(#linear-gradient-25);}.cls-5{fill:url(#linear-gradient-33);}.cls-6{fill:url(#linear-gradient-41);}.cls-7{fill:url(#linear-gradient-49);}.cls-8{fill:url(#linear-gradient-57);}.cls-9{fill:url(#linear-gradient-65);}.cls-10{fill:url(#linear-gradient-73);}.cls-11{fill:url(#linear-gradient-81);}.cls-12{fill:url(#linear-gradient-89);}.cls-13{fill:url(#linear-gradient-97);}.cls-14{fill:url(#linear-gradient-105);}.cls-15{fill:url(#linear-gradient-113);}.cls-16{fill:url(#linear-gradient-121);}.cls-17{fill:url(#linear-gradient-129);}.cls-18{fill:url(#linear-gradient-137);}.cls-19{fill:url(#linear-gradient-145);}.cls-20{fill:url(#linear-gradient-153);}.cls-21{fill:url(#linear-gradient-161);}.cls-22{fill:url(#linear-gradient-169);}.cls-23{fill:url(#linear-gradient-177);}.cls-24{fill:url(#linear-gradient-185);}.cls-25{fill:url(#linear-gradient-193);}.cls-26{fill:url(#linear-gradient-201);}.cls-27{fill:url(#linear-gradient-209);}.cls-28{fill:url(#linear-gradient-217);}.cls-29{fill:url(#linear-gradient-225);}.cls-30{fill:url(#linear-gradient-233);}.cls-31{fill:url(#linear-gradient-241);}.cls-32{fill:url(#linear-gradient-249);}.cls-33{fill:url(#linear-gradient-257);}.cls-34{fill:url(#linear-gradient-265);}.cls-35{font-size:71.72px;font-family:RocketRinder, Rocket Rinder;}.cls-36{fill:url(#linear-gradient-273);}.cls-37{fill:url(#linear-gradient-281);}.cls-38{fill:url(#linear-gradient-289);}</style><linearGradient id="linear-gradient" x1="234.51" y1="18.03" x2="234.51" y2="67.7" gradientTransform="translate(16.8 16.8)" gradientUnits="userSpaceOnUse"><stop offset="0"/><stop offset="0.4" stop-color="#100012"/><stop offset="1" stop-color="#25002a"/></linearGradient><linearGradient id="linear-gradient-9" x1="234.51" y1="18.03" x2="234.51" y2="67.7" gradientTransform="translate(15.75 15.75)" xlink:href="#linear-gradient"/><linearGradient id="linear-gradient-17" x1="234.51" y1="18.03" x2="234.51" y2="67.7" gradientTransform="translate(14.7 14.7)" xlink:href="#linear-gradient"/><linearGradient id="linear-gradient-25" x1="234.51" y1="18.03" x2="234.51" y2="67.7" gradientTransform="translate(13.65 13.65)" xlink:href="#linear-gradient"/><linearGradient id="linear-gradient-33" x1="234.51" y1="18.03" x2="234.51" y2="67.7" gradientTransform="translate(12.6 12.6)" xlink:href="#linear-gradient"/><linearGradient id="linear-gradient-41" x1="234.51" y1="18.03" x2="234.51" y2="67.7" gradientTransform="translate(11.55 11.55)" xlink:href="#linear-gradient"/><linearGradient id="linear-gradient-49" x1="234.51" y1="18.03" x2="234.51" y2="67.7" gradientTransform="translate(10.5 10.5)" xlink:href="#linear-gradient"/><linearGradient id="linear-gradient-57" x1="234.51" y1="18.03" x2="234.51" y2="67.7" gradientTransform="translate(9.45 9.45)" xlink:href="#linear-gradient"/><linearGradient id="linear-gradient-65" x1="234.51" y1="18.03" x2="234.51" y2="67.7" gradientTransform="translate(8.4 8.4)" xlink:href="#linear-gradient"/><linearGradient id="linear-gradient-73" x1="234.51" y1="18.03" x2="234.51" y2="67.7" gradientTransform="translate(7.35 7.35)" xlink:href="#linear-gradient"/><linearGradient id="linear-gradient-81" x1="234.51" y1="18.03" x2="234.51" y2="67.7" gradientTransform="translate(6.3 6.3)" xlink:href="#linear-gradient"/><linearGradient id="linear-gradient-89" x1="234.51" y1="18.03" x2="234.51" y2="67.7" gradientTransform="translate(5.25 5.25)" xlink:href="#linear-gradient"/><linearGradient id="linear-gradient-97" x1="234.51" y1="18.03" x2="234.51" y2="67.7" gradientTransform="translate(4.2 4.2)" xlink:href="#linear-gradient"/><linearGradient id="linear-gradient-105" x1="234.51" y1="18.03" x2="234.51" y2="67.7" gradientTransform="translate(3.15 3.15)" xlink:href="#linear-gradient"/><linearGradient id="linear-gradient-113" x1="234.51" y1="18.03" x2="234.51" y2="67.7" gradientTransform="translate(2.1 2.1)" xlink:href="#linear-gradient"/><linearGradient id="linear-gradient-121" x1="234.51" y1="18.03" x2="234.51" y2="67.7" gradientTransform="translate(1.05 1.05)" xlink:href="#linear-gradient"/><linearGradient id="linear-gradient-129" x1="234.51" y1="18.03" x2="234.51" y2="67.7" gradientTransform="matrix(1, 0, 0, 1, 0, 0)" xlink:href="#linear-gradient"/><linearGradient id="linear-gradient-137" x1="234.51" y1="18.03" x2="234.51" y2="67.7" gradientTransform="translate(12.8 12.8)" gradientUnits="userSpaceOnUse"><stop offset="0" stop-color="#781964"/><stop offset="0.02" stop-color="#7e236b"/><stop offset="0.14" stop-color="#a46097"/><stop offset="0.2" stop-color="#b378a8"/><stop offset="0.27" stop-color="#9c528d"/><stop offset="0.35" stop-color="#837"/><stop offset="0.42" stop-color="#7c2069"/><stop offset="0.46" stop-color="#781964"/><stop offset="0.48" stop-color="#7e236b"/><stop offset="0.58" stop-color="#a46097"/><stop offset="0.63" stop-color="#b378a8"/><stop offset="0.74" stop-color="#9c528d"/><stop offset="0.85" stop-color="#837"/><stop offset="0.94" stop-color="#7c2069"/><stop offset="1" stop-color="#781964"/></linearGradient><linearGradient id="linear-gradient-145" x1="234.51" y1="18.03" x2="234.51" y2="67.7" gradientTransform="translate(12 12)" xlink:href="#linear-gradient-137"/><linearGradient id="linear-gradient-153" x1="234.51" y1="18.03" x2="234.51" y2="67.7" gradientTransform="translate(11.2 11.2)" xlink:href="#linear-gradient-137"/><linearGradient id="linear-gradient-161" x1="234.51" y1="18.03" x2="234.51" y2="67.7" gradientTransform="translate(10.4 10.4)" xlink:href="#linear-gradient-137"/><linearGradient id="linear-gradient-169" x1="234.51" y1="18.03" x2="234.51" y2="67.7" gradientTransform="translate(9.6 9.6)" xlink:href="#linear-gradient-137"/><linearGradient id="linear-gradient-177" x1="234.51" y1="18.03" x2="234.51" y2="67.7" gradientTransform="translate(8.8 8.8)" xlink:href="#linear-gradient-137"/><linearGradient id="linear-gradient-185" x1="234.51" y1="18.03" x2="234.51" y2="67.7" gradientTransform="translate(8 8)" xlink:href="#linear-gradient-137"/><linearGradient id="linear-gradient-193" x1="234.51" y1="18.03" x2="234.51" y2="67.7" gradientTransform="translate(7.2 7.2)" xlink:href="#linear-gradient-137"/><linearGradient id="linear-gradient-201" x1="234.51" y1="18.03" x2="234.51" y2="67.7" gradientTransform="translate(6.4 6.4)" xlink:href="#linear-gradient-137"/><linearGradient id="linear-gradient-209" x1="234.51" y1="18.03" x2="234.51" y2="67.7" gradientTransform="translate(5.6 5.6)" xlink:href="#linear-gradient-137"/><linearGradient id="linear-gradient-217" x1="234.51" y1="18.03" x2="234.51" y2="67.7" gradientTransform="translate(4.8 4.8)" xlink:href="#linear-gradient-137"/><linearGradient id="linear-gradient-225" x1="234.51" y1="18.03" x2="234.51" y2="67.7" gradientTransform="translate(4 4)" xlink:href="#linear-gradient-137"/><linearGradient id="linear-gradient-233" x1="234.51" y1="18.03" x2="234.51" y2="67.7" gradientTransform="translate(3.2 3.2)" xlink:href="#linear-gradient-137"/><linearGradient id="linear-gradient-241" x1="234.51" y1="18.03" x2="234.51" y2="67.7" gradientTransform="translate(2.4 2.4)" xlink:href="#linear-gradient-137"/><linearGradient id="linear-gradient-249" x1="234.51" y1="18.03" x2="234.51" y2="67.7" gradientTransform="translate(1.6 1.6)" xlink:href="#linear-gradient-137"/><linearGradient id="linear-gradient-257" x1="234.51" y1="18.03" x2="234.51" y2="67.7" gradientTransform="translate(0.8 0.8)" xlink:href="#linear-gradient-137"/><linearGradient id="linear-gradient-265" x1="234.51" y1="18.03" x2="234.51" y2="67.7" gradientTransform="matrix(1, 0, 0, 1, 0, 0)" xlink:href="#linear-gradient-137"/><linearGradient id="linear-gradient-273" x1="234.51" y1="14.69" x2="234.51" y2="72.46" gradientUnits="userSpaceOnUse"><stop offset="0" stop-color="#fff"/><stop offset="1" stop-color="#fff"/></linearGradient><linearGradient id="linear-gradient-281" x1="234.51" y1="13.72" x2="234.51" y2="76.8" gradientUnits="userSpaceOnUse"><stop offset="0" stop-color="#00003f"/><stop offset="0.01" stop-color="#080a48"/><stop offset="0.11" stop-color="#5e77a9"/><stop offset="0.18" stop-color="#95bce7"/><stop offset="0.21" stop-color="#aad7ff"/><stop offset="0.24" stop-color="#badfff"/><stop offset="0.29" stop-color="#e4f2ff"/><stop offset="0.32" stop-color="#fff"/><stop offset="0.37" stop-color="#fdfdfe"/><stop offset="0.38" stop-color="#f6f6f8"/><stop offset="0.39" stop-color="#ebebf0"/><stop offset="0.4" stop-color="#dadae3"/><stop offset="0.41" stop-color="#c4c4d2"/><stop offset="0.41" stop-color="#a8a8be"/><stop offset="0.42" stop-color="#8888a5"/><stop offset="0.43" stop-color="#626289"/><stop offset="0.43" stop-color="#373768"/><stop offset="0.43" stop-color="#090946"/><stop offset="0.44" stop-color="#00003f"/><stop offset="0.46" stop-color="#0a0039"/><stop offset="0.56" stop-color="#26002a"/><stop offset="0.56" stop-color="#2d0831"/><stop offset="0.64" stop-color="#644967"/><stop offset="0.71" stop-color="#938095"/><stop offset="0.78" stop-color="#baaebb"/><stop offset="0.84" stop-color="#d8d1d9"/><stop offset="0.9" stop-color="#edeaee"/><stop offset="0.96" stop-color="#fafafb"/><stop offset="1" stop-color="#fff"/></linearGradient><linearGradient id="linear-gradient-289" x1="273.66" y1="123.84" x2="214.17" y2="-11.9" gradientUnits="userSpaceOnUse"><stop offset="0.03" stop-color="#ffab15"/><stop offset="0.04" stop-color="#fda816"/><stop offset="0.23" stop-color="#c96d34"/><stop offset="0.4" stop-color="#a03e4b"/><stop offset="0.55" stop-color="#831c5c"/><stop offset="0.68" stop-color="#710766"/><stop offset="0.76" stop-color="#6a006a"/><stop offset="0.83" stop-color="#660067"/><stop offset="0.89" stop-color="#5a005d"/><stop offset="0.96" stop-color="#47004d"/><stop offset="1" stop-color="#380040"/></linearGradient></defs><g id="Layer_2" data-name="Layer 2"><g id="Layer_1-2" data-name="Layer 1"><polygon class="cls-1" points="71.72 93.83 70.96 93.07 70.96 93.83 28.95 93.83 28.95 41.11 16.8 16.8 90.78 16.8 105.98 32.01 105.98 61.11 102.2 64.89 131.14 93.83 71.72 93.83"/><polygon class="cls-1" points="96.69 93.83 81.48 78.62 81.48 32.01 96.69 16.8 143.3 16.8 158.51 32.01 158.51 78.62 143.3 93.83 96.69 93.83"/><polygon class="cls-1" points="134.01 93.83 134.01 41.11 121.85 16.8 195.83 16.8 211.03 32.01 211.03 78.62 195.83 93.83 134.01 93.83"/><polygon class="cls-1" points="201.74 93.83 186.54 78.62 186.54 32.01 201.74 16.8 248.36 16.8 263.56 32.01 263.56 78.62 248.36 93.83 201.74 93.83"/><polygon class="cls-1" points="254.27 93.83 239.06 78.62 239.06 32.01 254.27 16.8 328.24 16.8 310.73 51.82 316.09 51.82 316.09 93.83 254.27 93.83"/><polygon class="cls-1" points="306.79 93.83 291.59 78.62 291.59 32.01 306.79 16.8 353.41 16.8 368.62 32.01 368.62 78.62 353.41 93.83 306.79 93.83"/><polygon class="cls-1" points="344.12 93.83 344.12 41.11 331.96 16.8 405.94 16.8 421.14 32.01 421.14 78.62 405.94 93.83 344.12 93.83"/><polygon class="cls-1" points="411.85 93.83 396.64 78.62 396.64 32.01 411.85 16.8 485.82 16.8 473.67 41.11 473.67 93.83 411.85 93.83"/><polygon class="cls-2" points="70.67 92.78 69.91 92.02 69.91 92.78 27.91 92.78 27.91 40.06 15.75 15.75 89.72 15.75 104.93 30.95 104.93 60.06 101.15 63.84 130.09 92.78 70.67 92.78"/><polygon class="cls-2" points="95.64 92.78 80.43 77.57 80.43 30.95 95.64 15.75 142.25 15.75 157.46 30.95 157.46 77.57 142.25 92.78 95.64 92.78"/><polygon class="cls-2" points="132.96 92.78 132.96 40.06 120.8 15.75 194.78 15.75 209.98 30.95 209.98 77.57 194.78 92.78 132.96 92.78"/><polygon class="cls-2" points="200.69 92.78 185.49 77.57 185.49 30.95 200.69 15.75 247.31 15.75 262.51 30.95 262.51 77.57 247.31 92.78 200.69 92.78"/><polygon class="cls-2" points="253.22 92.78 238.01 77.57 238.01 30.95 253.22 15.75 327.19 15.75 309.68 50.77 315.04 50.77 315.04 92.78 253.22 92.78"/><polygon class="cls-2" points="305.74 92.78 290.54 77.57 290.54 30.96 305.74 15.75 352.36 15.75 367.57 30.95 367.57 77.57 352.36 92.78 305.74 92.78"/><polygon class="cls-2" points="343.07 92.78 343.07 40.06 330.91 15.75 404.89 15.75 420.09 30.95 420.09 77.57 404.89 92.78 343.07 92.78"/><polygon class="cls-2" points="410.8 92.78 395.59 77.57 395.59 30.95 410.8 15.75 484.77 15.75 472.62 40.06 472.62 92.78 410.8 92.78"/><polygon class="cls-3" points="69.62 91.72 68.86 90.97 68.86 91.72 26.86 91.72 26.86 39.01 14.7 14.7 88.67 14.7 103.88 29.91 103.88 59.01 100.1 62.79 129.04 91.72 69.62 91.72"/><polygon class="cls-3" points="94.59 91.72 79.38 76.52 79.38 29.91 94.59 14.7 141.2 14.7 156.41 29.91 156.41 76.52 141.2 91.72 94.59 91.72"/><polygon class="cls-3" points="131.91 91.72 131.91 39.01 119.75 14.7 193.73 14.7 208.93 29.91 208.93 76.52 193.73 91.72 131.91 91.72"/><polygon class="cls-3" points="199.64 91.72 184.44 76.52 184.44 29.91 199.64 14.7 246.26 14.7 261.46 29.91 261.46 76.52 246.26 91.72 199.64 91.72"/><polygon class="cls-3" points="252.17 91.72 236.96 76.52 236.96 29.91 252.17 14.7 326.14 14.7 308.63 49.72 313.99 49.72 313.99 91.72 252.17 91.72"/><polygon class="cls-3" points="304.69 91.72 289.49 76.52 289.49 29.91 304.69 14.7 351.31 14.7 366.52 29.91 366.52 76.52 351.31 91.72 304.69 91.72"/><polygon class="cls-3" points="342.02 91.72 342.02 39.01 329.86 14.7 403.84 14.7 419.04 29.91 419.04 76.52 403.84 91.72 342.02 91.72"/><polygon class="cls-3" points="409.75 91.72 394.54 76.52 394.54 29.91 409.75 14.7 483.73 14.7 471.57 39.01 471.57 91.72 409.75 91.72"/><polygon class="cls-4" points="68.57 90.67 67.81 89.92 67.81 90.67 25.8 90.67 25.8 37.96 13.65 13.65 87.63 13.65 102.83 28.86 102.83 57.96 99.05 61.74 127.99 90.67 68.57 90.67"/><polygon class="cls-4" points="93.54 90.67 78.33 75.47 78.33 28.86 93.54 13.65 140.15 13.65 155.36 28.86 155.36 75.47 140.15 90.67 93.54 90.67"/><polygon class="cls-4" points="130.86 90.67 130.86 37.96 118.7 13.65 192.68 13.65 207.88 28.86 207.88 75.47 192.68 90.67 130.86 90.67"/><polygon class="cls-4" points="198.59 90.67 183.39 75.47 183.39 28.86 198.59 13.65 245.21 13.65 260.41 28.86 260.41 75.47 245.21 90.67 198.59 90.67"/><polygon class="cls-4" points="251.12 90.67 235.91 75.47 235.91 28.86 251.12 13.65 325.09 13.65 307.58 48.67 312.94 48.67 312.94 90.67 251.12 90.67"/><polygon class="cls-4" points="303.64 90.67 288.44 75.47 288.44 28.86 303.64 13.65 350.26 13.65 365.47 28.86 365.47 75.47 350.26 90.67 303.64 90.67"/><polygon class="cls-4" points="340.97 90.67 340.97 37.96 328.81 13.65 402.79 13.65 417.99 28.86 417.99 75.47 402.79 90.67 340.97 90.67"/><polygon class="cls-4" points="408.7 90.67 393.49 75.47 393.49 28.86 408.7 13.65 482.68 13.65 470.52 37.96 470.52 90.67 408.7 90.67"/><polygon class="cls-5" points="67.52 89.63 66.76 88.87 66.76 89.63 24.75 89.63 24.75 36.91 12.6 12.6 86.58 12.6 101.78 27.8 101.78 56.91 98 60.69 126.94 89.63 67.52 89.63"/><polygon class="cls-5" points="92.49 89.63 77.28 74.42 77.28 27.8 92.49 12.6 139.1 12.6 154.31 27.8 154.31 74.42 139.1 89.63 92.49 89.63"/><polygon class="cls-5" points="129.81 89.63 129.81 36.91 117.65 12.6 191.63 12.6 206.83 27.8 206.83 74.42 191.63 89.63 129.81 89.63"/><polygon class="cls-5" points="197.54 89.63 182.34 74.42 182.34 27.8 197.54 12.6 244.16 12.6 259.36 27.8 259.36 74.42 244.16 89.63 197.54 89.63"/><polygon class="cls-5" points="250.07 89.63 234.86 74.42 234.86 27.8 250.07 12.6 324.04 12.6 306.53 47.62 311.89 47.62 311.89 89.63 250.07 89.63"/><polygon class="cls-5" points="302.59 89.63 287.39 74.42 287.39 27.81 302.59 12.6 349.21 12.6 364.42 27.8 364.42 74.42 349.21 89.63 302.59 89.63"/><polygon class="cls-5" points="339.92 89.63 339.92 36.91 327.76 12.6 401.74 12.6 416.94 27.8 416.94 74.42 401.74 89.63 339.92 89.63"/><polygon class="cls-5" points="407.65 89.63 392.44 74.42 392.44 27.8 407.65 12.6 481.63 12.6 469.47 36.91 469.47 89.63 407.65 89.63"/><polygon class="cls-6" points="66.47 88.58 65.71 87.82 65.71 88.58 23.7 88.58 23.7 35.86 11.55 11.55 85.53 11.55 100.73 26.75 100.73 55.86 96.95 59.64 125.89 88.58 66.47 88.58"/><polygon class="cls-6" points="91.44 88.58 76.23 73.37 76.23 26.75 91.44 11.55 138.05 11.55 153.26 26.75 153.26 73.37 138.05 88.58 91.44 88.58"/><polygon class="cls-6" points="128.76 88.58 128.76 35.86 116.6 11.55 190.58 11.55 205.78 26.75 205.78 73.37 190.58 88.58 128.76 88.58"/><polygon class="cls-6" points="196.49 88.58 181.29 73.37 181.29 26.75 196.49 11.55 243.11 11.55 258.31 26.75 258.31 73.37 243.11 88.58 196.49 88.58"/><polygon class="cls-6" points="249.02 88.58 233.81 73.37 233.81 26.75 249.02 11.55 322.99 11.55 305.48 46.57 310.84 46.57 310.84 88.58 249.02 88.58"/><polygon class="cls-6" points="301.54 88.58 286.34 73.37 286.34 26.76 301.54 11.55 348.16 11.55 363.37 26.75 363.37 73.37 348.16 88.58 301.54 88.58"/><polygon class="cls-6" points="338.87 88.58 338.87 35.86 326.71 11.55 400.69 11.55 415.89 26.75 415.89 73.37 400.69 88.58 338.87 88.58"/><polygon class="cls-6" points="406.6 88.58 391.39 73.37 391.39 26.75 406.6 11.55 480.57 11.55 468.42 35.86 468.42 88.58 406.6 88.58"/><polygon class="cls-7" points="65.42 87.53 64.66 86.77 64.66 87.53 22.66 87.53 22.66 34.81 10.5 10.5 84.47 10.5 99.68 25.7 99.68 54.81 95.9 58.59 124.84 87.53 65.42 87.53"/><polygon class="cls-7" points="90.39 87.53 75.18 72.32 75.18 25.7 90.39 10.5 137 10.5 152.21 25.7 152.21 72.32 137 87.53 90.39 87.53"/><polygon class="cls-7" points="127.71 87.53 127.71 34.81 115.55 10.5 189.53 10.5 204.73 25.7 204.73 72.32 189.53 87.53 127.71 87.53"/><polygon class="cls-7" points="195.44 87.53 180.24 72.32 180.24 25.7 195.44 10.5 242.06 10.5 257.26 25.7 257.26 72.32 242.06 87.53 195.44 87.53"/><polygon class="cls-7" points="247.97 87.53 232.76 72.32 232.76 25.7 247.97 10.5 321.94 10.5 304.43 45.52 309.79 45.52 309.79 87.53 247.97 87.53"/><polygon class="cls-7" points="300.49 87.53 285.29 72.32 285.29 25.71 300.49 10.5 347.11 10.5 362.32 25.7 362.32 72.32 347.11 87.53 300.49 87.53"/><polygon class="cls-7" points="337.82 87.53 337.82 34.81 325.66 10.5 399.64 10.5 414.84 25.7 414.84 72.32 399.64 87.53 337.82 87.53"/><polygon class="cls-7" points="405.55 87.53 390.34 72.32 390.34 25.7 405.55 10.5 479.52 10.5 467.37 34.81 467.37 87.53 405.55 87.53"/><polygon class="cls-8" points="64.37 86.47 63.61 85.72 63.61 86.47 21.61 86.47 21.61 33.76 9.45 9.45 83.42 9.45 98.63 24.66 98.63 53.76 94.85 57.54 123.79 86.47 64.37 86.47"/><polygon class="cls-8" points="89.34 86.47 74.13 71.27 74.13 24.66 89.34 9.45 135.95 9.45 151.16 24.66 151.16 71.27 135.95 86.47 89.34 86.47"/><polygon class="cls-8" points="126.66 86.47 126.66 33.76 114.5 9.45 188.48 9.45 203.68 24.66 203.68 71.27 188.48 86.47 126.66 86.47"/><polygon class="cls-8" points="194.39 86.47 179.19 71.27 179.19 24.66 194.39 9.45 241.01 9.45 256.21 24.66 256.21 71.27 241.01 86.47 194.39 86.47"/><polygon class="cls-8" points="246.92 86.47 231.71 71.27 231.71 24.66 246.92 9.45 320.89 9.45 303.38 44.47 308.74 44.47 308.74 86.47 246.92 86.47"/><polygon class="cls-8" points="299.44 86.47 284.24 71.27 284.24 24.66 299.44 9.45 346.06 9.45 361.27 24.66 361.27 71.27 346.06 86.47 299.44 86.47"/><polygon class="cls-8" points="336.77 86.47 336.77 33.76 324.61 9.45 398.59 9.45 413.79 24.66 413.79 71.27 398.59 86.47 336.77 86.47"/><polygon class="cls-8" points="404.5 86.47 389.29 71.27 389.29 24.66 404.5 9.45 478.48 9.45 466.32 33.76 466.32 86.47 404.5 86.47"/><polygon class="cls-9" points="63.32 85.42 62.56 84.67 62.56 85.42 20.55 85.42 20.55 32.71 8.4 8.4 82.38 8.4 97.58 23.61 97.58 52.71 93.8 56.49 122.74 85.42 63.32 85.42"/><polygon class="cls-9" points="88.29 85.42 73.08 70.22 73.08 23.61 88.29 8.4 134.9 8.4 150.11 23.61 150.11 70.22 134.9 85.42 88.29 85.42"/><polygon class="cls-9" points="125.61 85.42 125.61 32.71 113.45 8.4 187.43 8.4 202.63 23.61 202.63 70.22 187.43 85.42 125.61 85.42"/><polygon class="cls-9" points="193.34 85.42 178.14 70.22 178.14 23.61 193.34 8.4 239.96 8.4 255.16 23.61 255.16 70.22 239.96 85.42 193.34 85.42"/><polygon class="cls-9" points="245.87 85.42 230.66 70.22 230.66 23.61 245.87 8.4 319.84 8.4 302.33 43.42 307.69 43.42 307.69 85.42 245.87 85.42"/><polygon class="cls-9" points="298.39 85.42 283.19 70.22 283.19 23.61 298.39 8.4 345.01 8.4 360.22 23.61 360.22 70.22 345.01 85.42 298.39 85.42"/><polygon class="cls-9" points="335.72 85.42 335.72 32.71 323.56 8.4 397.54 8.4 412.74 23.61 412.74 70.22 397.54 85.42 335.72 85.42"/><polygon class="cls-9" points="403.45 85.42 388.24 70.22 388.24 23.61 403.45 8.4 477.43 8.4 465.27 32.71 465.27 85.42 403.45 85.42"/><polygon class="cls-10" points="62.27 84.38 61.51 83.62 61.51 84.38 19.5 84.38 19.5 31.66 7.35 7.35 81.33 7.35 96.53 22.55 96.53 51.66 92.75 55.44 121.69 84.38 62.27 84.38"/><polygon class="cls-10" points="87.24 84.38 72.03 69.17 72.03 22.55 87.24 7.35 133.85 7.35 149.06 22.55 149.06 69.17 133.85 84.38 87.24 84.38"/><polygon class="cls-10" points="124.56 84.38 124.56 31.66 112.4 7.35 186.38 7.35 201.58 22.55 201.58 69.17 186.38 84.38 124.56 84.38"/><polygon class="cls-10" points="192.29 84.38 177.09 69.17 177.09 22.55 192.29 7.35 238.91 7.35 254.11 22.55 254.11 69.17 238.91 84.38 192.29 84.38"/><polygon class="cls-10" points="244.82 84.38 229.61 69.17 229.61 22.55 244.82 7.35 318.79 7.35 301.28 42.37 306.64 42.37 306.64 84.38 244.82 84.38"/><polygon class="cls-10" points="297.34 84.38 282.14 69.17 282.14 22.56 297.34 7.35 343.96 7.35 359.17 22.55 359.17 69.17 343.96 84.38 297.34 84.38"/><polygon class="cls-10" points="334.67 84.38 334.67 31.66 322.51 7.35 396.49 7.35 411.69 22.55 411.69 69.17 396.49 84.38 334.67 84.38"/><polygon class="cls-10" points="402.4 84.38 387.19 69.17 387.19 22.55 402.4 7.35 476.38 7.35 464.22 31.66 464.22 84.38 402.4 84.38"/><polygon class="cls-11" points="61.22 83.33 60.46 82.57 60.46 83.33 18.45 83.33 18.45 30.61 6.3 6.3 80.28 6.3 95.48 21.5 95.48 50.61 91.7 54.39 120.64 83.33 61.22 83.33"/><polygon class="cls-11" points="86.19 83.33 70.98 68.12 70.98 21.5 86.19 6.3 132.8 6.3 148.01 21.5 148.01 68.12 132.8 83.33 86.19 83.33"/><polygon class="cls-11" points="123.51 83.33 123.51 30.61 111.35 6.3 185.33 6.3 200.53 21.5 200.53 68.12 185.33 83.33 123.51 83.33"/><polygon class="cls-11" points="191.24 83.33 176.04 68.12 176.04 21.5 191.24 6.3 237.86 6.3 253.06 21.5 253.06 68.12 237.86 83.33 191.24 83.33"/><polygon class="cls-11" points="243.77 83.33 228.56 68.12 228.56 21.5 243.77 6.3 317.74 6.3 300.23 41.32 305.59 41.32 305.59 83.33 243.77 83.33"/><polygon class="cls-11" points="296.29 83.33 281.09 68.12 281.09 21.51 296.29 6.3 342.91 6.3 358.12 21.5 358.12 68.12 342.91 83.33 296.29 83.33"/><polygon class="cls-11" points="333.62 83.33 333.62 30.61 321.46 6.3 395.44 6.3 410.64 21.5 410.64 68.12 395.44 83.33 333.62 83.33"/><polygon class="cls-11" points="401.35 83.33 386.14 68.12 386.14 21.5 401.35 6.3 475.32 6.3 463.17 30.61 463.17 83.33 401.35 83.33"/><polygon class="cls-12" points="60.17 82.28 59.41 81.52 59.41 82.28 17.41 82.28 17.41 29.56 5.25 5.25 79.22 5.25 94.43 20.45 94.43 49.56 90.65 53.34 119.59 82.28 60.17 82.28"/><polygon class="cls-12" points="85.14 82.28 69.93 67.07 69.93 20.45 85.14 5.25 131.75 5.25 146.96 20.45 146.96 67.07 131.75 82.28 85.14 82.28"/><polygon class="cls-12" points="122.46 82.28 122.46 29.56 110.3 5.25 184.28 5.25 199.48 20.45 199.48 67.07 184.28 82.28 122.46 82.28"/><polygon class="cls-12" points="190.19 82.28 174.99 67.07 174.99 20.45 190.19 5.25 236.81 5.25 252.01 20.45 252.01 67.07 236.81 82.28 190.19 82.28"/><polygon class="cls-12" points="242.72 82.28 227.51 67.07 227.51 20.45 242.72 5.25 316.69 5.25 299.18 40.27 304.54 40.27 304.54 82.28 242.72 82.28"/><polygon class="cls-12" points="295.24 82.28 280.04 67.07 280.04 20.46 295.24 5.25 341.86 5.25 357.07 20.45 357.07 67.07 341.86 82.28 295.24 82.28"/><polygon class="cls-12" points="332.57 82.28 332.57 29.56 320.41 5.25 394.39 5.25 409.59 20.45 409.59 67.07 394.39 82.28 332.57 82.28"/><polygon class="cls-12" points="400.3 82.28 385.09 67.07 385.09 20.45 400.3 5.25 474.27 5.25 462.12 29.56 462.12 82.28 400.3 82.28"/><polygon class="cls-13" points="59.12 81.22 58.36 80.47 58.36 81.22 16.36 81.22 16.36 28.51 4.2 4.2 78.17 4.2 93.38 19.41 93.38 48.51 89.6 52.29 118.54 81.22 59.12 81.22"/><polygon class="cls-13" points="84.09 81.22 68.88 66.02 68.88 19.41 84.09 4.2 130.7 4.2 145.91 19.41 145.91 66.02 130.7 81.22 84.09 81.22"/><polygon class="cls-13" points="121.41 81.22 121.41 28.51 109.25 4.2 183.23 4.2 198.43 19.41 198.43 66.02 183.23 81.22 121.41 81.22"/><polygon class="cls-13" points="189.14 81.22 173.94 66.02 173.94 19.41 189.14 4.2 235.76 4.2 250.96 19.41 250.96 66.02 235.76 81.22 189.14 81.22"/><polygon class="cls-13" points="241.67 81.22 226.46 66.02 226.46 19.41 241.67 4.2 315.64 4.2 298.13 39.22 303.49 39.22 303.49 81.22 241.67 81.22"/><polygon class="cls-13" points="294.19 81.22 278.99 66.02 278.99 19.41 294.19 4.2 340.81 4.2 356.02 19.41 356.02 66.02 340.81 81.22 294.19 81.22"/><polygon class="cls-13" points="331.52 81.22 331.52 28.51 319.36 4.2 393.34 4.2 408.54 19.41 408.54 66.02 393.34 81.22 331.52 81.22"/><polygon class="cls-13" points="399.25 81.22 384.04 66.02 384.04 19.41 399.25 4.2 473.23 4.2 461.07 28.51 461.07 81.22 399.25 81.22"/><polygon class="cls-14" points="58.07 80.17 57.31 79.42 57.31 80.17 15.3 80.17 15.3 27.46 3.15 3.15 77.13 3.15 92.33 18.36 92.33 47.46 88.55 51.24 117.49 80.17 58.07 80.17"/><polygon class="cls-14" points="83.04 80.17 67.83 64.97 67.83 18.36 83.04 3.15 129.65 3.15 144.86 18.36 144.86 64.97 129.65 80.17 83.04 80.17"/><polygon class="cls-14" points="120.36 80.17 120.36 27.46 108.2 3.15 182.18 3.15 197.38 18.36 197.38 64.97 182.18 80.17 120.36 80.17"/><polygon class="cls-14" points="188.09 80.17 172.89 64.97 172.89 18.36 188.09 3.15 234.71 3.15 249.91 18.36 249.91 64.97 234.71 80.17 188.09 80.17"/><polygon class="cls-14" points="240.62 80.17 225.41 64.97 225.41 18.36 240.62 3.15 314.59 3.15 297.08 38.17 302.44 38.17 302.44 80.17 240.62 80.17"/><polygon class="cls-14" points="293.14 80.17 277.94 64.97 277.94 18.36 293.14 3.15 339.76 3.15 354.97 18.36 354.97 64.97 339.76 80.17 293.14 80.17"/><polygon class="cls-14" points="330.47 80.17 330.47 27.46 318.31 3.15 392.29 3.15 407.49 18.36 407.49 64.97 392.29 80.17 330.47 80.17"/><polygon class="cls-14" points="398.2 80.17 382.99 64.97 382.99 18.36 398.2 3.15 472.18 3.15 460.02 27.46 460.02 80.17 398.2 80.17"/><polygon class="cls-15" points="57.02 79.13 56.26 78.37 56.26 79.13 14.26 79.13 14.26 26.41 2.1 2.1 76.08 2.1 91.28 17.3 91.28 46.41 87.5 50.19 116.44 79.13 57.02 79.13"/><polygon class="cls-15" points="81.99 79.13 66.78 63.92 66.78 17.3 81.99 2.1 128.6 2.1 143.81 17.3 143.81 63.92 128.6 79.13 81.99 79.13"/><polygon class="cls-15" points="119.31 79.13 119.31 26.41 107.15 2.1 181.13 2.1 196.33 17.3 196.33 63.92 181.13 79.13 119.31 79.13"/><polygon class="cls-15" points="187.04 79.13 171.84 63.92 171.84 17.3 187.04 2.1 233.66 2.1 248.86 17.3 248.86 63.92 233.66 79.13 187.04 79.13"/><polygon class="cls-15" points="239.57 79.13 224.36 63.92 224.36 17.3 239.57 2.1 313.54 2.1 296.03 37.12 301.39 37.12 301.39 79.13 239.57 79.13"/><polygon class="cls-15" points="292.09 79.13 276.89 63.92 276.89 17.31 292.09 2.1 338.71 2.1 353.92 17.3 353.92 63.92 338.71 79.13 292.09 79.13"/><polygon class="cls-15" points="329.42 79.13 329.42 26.41 317.26 2.1 391.24 2.1 406.44 17.3 406.44 63.92 391.24 79.13 329.42 79.13"/><polygon class="cls-15" points="397.15 79.13 381.94 63.92 381.94 17.3 397.15 2.1 471.13 2.1 458.97 26.41 458.97 79.13 397.15 79.13"/><polygon class="cls-16" points="55.97 78.08 55.21 77.32 55.21 78.08 13.21 78.08 13.21 25.36 1.05 1.05 75.03 1.05 90.23 16.25 90.23 45.36 86.45 49.14 115.39 78.08 55.97 78.08"/><polygon class="cls-16" points="80.94 78.08 65.73 62.87 65.73 16.25 80.94 1.05 127.55 1.05 142.76 16.25 142.76 62.87 127.55 78.08 80.94 78.08"/><polygon class="cls-16" points="118.26 78.08 118.26 25.36 106.1 1.05 180.08 1.05 195.28 16.25 195.28 62.87 180.08 78.08 118.26 78.08"/><polygon class="cls-16" points="185.99 78.08 170.79 62.87 170.79 16.25 185.99 1.05 232.61 1.05 247.81 16.25 247.81 62.87 232.61 78.08 185.99 78.08"/><polygon class="cls-16" points="238.52 78.08 223.31 62.87 223.31 16.25 238.52 1.05 312.49 1.05 294.98 36.07 300.34 36.07 300.34 78.08 238.52 78.08"/><polygon class="cls-16" points="291.04 78.08 275.84 62.87 275.84 16.26 291.04 1.05 337.66 1.05 352.87 16.25 352.87 62.87 337.66 78.08 291.04 78.08"/><polygon class="cls-16" points="328.37 78.08 328.37 25.36 316.21 1.05 390.19 1.05 405.39 16.25 405.39 62.87 390.19 78.08 328.37 78.08"/><polygon class="cls-16" points="396.1 78.08 380.89 62.87 380.89 16.25 396.1 1.05 470.07 1.05 457.92 25.36 457.92 78.08 396.1 78.08"/><polygon class="cls-17" points="54.92 77.03 54.16 76.27 54.16 77.03 12.15 77.03 12.15 24.31 0 0 73.97 0 89.18 15.21 89.18 44.31 85.4 48.09 114.34 77.03 54.92 77.03"/><polygon class="cls-17" points="79.89 77.03 64.68 61.82 64.68 15.21 79.89 0 126.5 0 141.71 15.21 141.71 61.82 126.5 77.03 79.89 77.03"/><polygon class="cls-17" points="117.21 77.03 117.21 24.31 105.05 0 179.03 0 194.23 15.21 194.23 61.82 179.03 77.03 117.21 77.03"/><polygon class="cls-17" points="184.94 77.03 169.74 61.82 169.74 15.21 184.94 0 231.56 0 246.76 15.21 246.76 61.82 231.56 77.03 184.94 77.03"/><polygon class="cls-17" points="237.47 77.03 222.26 61.82 222.26 15.21 237.47 0 311.44 0 293.93 35.02 299.29 35.02 299.29 77.03 237.47 77.03"/><polygon class="cls-17" points="289.99 77.03 274.79 61.82 274.79 15.21 289.99 0 336.61 0 351.82 15.21 351.82 61.82 336.61 77.03 289.99 77.03"/><polygon class="cls-17" points="327.32 77.03 327.32 24.31 315.16 0 389.14 0 404.34 15.21 404.34 61.82 389.14 77.03 327.32 77.03"/><polygon class="cls-17" points="395.05 77.03 379.84 61.82 379.84 15.21 395.05 0 469.02 0 456.87 24.31 456.87 77.03 395.05 77.03"/><polygon class="cls-18" points="71.03 81.83 58.96 69.75 58.96 81.83 32.95 81.83 32.95 38.31 34.5 38.31 25.74 20.8 83.46 20.8 93.98 31.32 93.98 53.8 86.89 60.89 107.82 81.83 71.03 81.83"/><path class="cls-18" d="M96,81.83,85.48,71.31v-40L96,20.8h40l10.52,10.52v40L136,81.83Zm24.5-26v-9h-9v9Z"/><polygon class="cls-18" points="138.01 81.83 138.01 38.31 139.55 38.31 130.8 20.8 188.52 20.8 199.03 31.32 199.03 50.3 198.02 51.31 199.03 52.33 199.03 71.31 188.52 81.83 138.01 81.83"/><path class="cls-18" d="M201.05,81.83,190.54,71.31v-40L201.05,20.8h40l10.52,10.52v40L241,81.83Zm24.5-26v-9h-9v9Z"/><polygon class="cls-18" points="253.58 81.83 243.06 71.31 243.06 31.32 253.58 20.8 311.3 20.8 298.3 46.81 269.07 46.81 269.07 55.82 304.09 55.82 304.09 81.83 253.58 81.83"/><path class="cls-18" d="M306.11,81.83,295.59,71.31v-40L306.11,20.8h40l10.52,10.52v40L346.1,81.83Zm24.5-26v-9h-9v9Z"/><path class="cls-18" d="M348.12,81.83V38.31h1.54L340.91,20.8h57.71l10.52,10.52v40L398.62,81.83Zm35-26v-9h-9v9Z"/><polygon class="cls-18" points="411.16 81.83 400.64 71.31 400.64 31.32 411.16 20.8 468.88 20.8 460.13 38.31 461.67 38.31 461.67 81.83 411.16 81.83"/><polygon class="cls-19" points="70.23 81.03 58.16 68.95 58.16 81.03 32.16 81.03 32.16 37.51 33.7 37.51 24.94 20 82.66 20 93.18 30.52 93.18 53 86.09 60.09 107.02 81.03 70.23 81.03"/><path class="cls-19" d="M95.2,81,84.68,70.51v-40L95.2,20h40l10.52,10.52v40L135.19,81Zm24.5-26V46h-9v9Z"/><polygon class="cls-19" points="137.21 81.03 137.21 37.51 138.75 37.51 130 20 187.72 20 198.23 30.52 198.23 49.5 197.22 50.51 198.23 51.53 198.23 70.51 187.72 81.03 137.21 81.03"/><path class="cls-19" d="M200.25,81,189.74,70.51v-40L200.25,20h40l10.52,10.52v40L240.24,81Zm24.5-26V46h-9v9Z"/><polygon class="cls-19" points="252.78 81.03 242.26 70.51 242.26 30.52 252.78 20 310.5 20 297.5 46.01 268.27 46.01 268.27 55.02 303.29 55.02 303.29 81.03 252.78 81.03"/><path class="cls-19" d="M305.31,81,294.79,70.51v-40L305.31,20h40l10.52,10.52v40L345.3,81Zm24.5-26V46h-9v9Z"/><path class="cls-19" d="M347.32,81V37.51h1.54L340.11,20h57.71l10.52,10.52v40L397.82,81Zm35-26V46h-9v9Z"/><polygon class="cls-19" points="410.36 81.03 399.84 70.51 399.84 30.52 410.36 20 468.08 20 459.32 37.51 460.87 37.51 460.87 81.03 410.36 81.03"/><polygon class="cls-20" points="69.43 80.22 57.36 68.16 57.36 80.22 31.36 80.22 31.36 36.71 32.9 36.71 24.14 19.2 81.86 19.2 92.38 29.72 92.38 52.2 85.29 59.29 106.22 80.22 69.43 80.22"/><path class="cls-20" d="M94.4,80.23,83.88,69.71v-40L94.4,19.2h40l10.52,10.52v40L134.39,80.23Zm24.5-26v-9h-9v9Z"/><polygon class="cls-20" points="136.41 80.22 136.41 36.71 137.95 36.71 129.2 19.2 186.92 19.2 197.43 29.72 197.43 48.7 196.42 49.71 197.43 50.73 197.43 69.71 186.92 80.22 136.41 80.22"/><path class="cls-20" d="M199.45,80.23,188.94,69.71v-40L199.45,19.2h40L250,29.72v40L239.44,80.23Zm24.5-26v-9h-9v9Z"/><polygon class="cls-20" points="251.98 80.22 241.46 69.71 241.46 29.72 251.98 19.2 309.7 19.2 296.69 45.21 267.47 45.21 267.47 54.22 302.49 54.22 302.49 80.22 251.98 80.22"/><path class="cls-20" d="M304.51,80.23,294,69.71v-40L304.51,19.2h40L355,29.72v40L344.5,80.23Zm24.5-26v-9h-9v9Z"/><path class="cls-20" d="M346.52,80.23V36.71h1.54L339.31,19.2H397l10.52,10.52v40L397,80.23Zm35-26v-9h-9v9Z"/><polygon class="cls-20" points="409.56 80.22 399.04 69.71 399.04 29.72 409.56 19.2 467.28 19.2 458.52 36.71 460.07 36.71 460.07 80.22 409.56 80.22"/><polygon class="cls-21" points="68.63 79.42 56.56 67.36 56.56 79.42 30.55 79.42 30.55 35.91 32.1 35.91 23.34 18.4 81.06 18.4 91.58 28.92 91.58 51.4 84.49 58.49 105.42 79.42 68.63 79.42"/><path class="cls-21" d="M93.6,79.43,83.08,68.91v-40L93.6,18.4h40l10.52,10.52v40L133.59,79.43Zm24.5-26v-9h-9v9Z"/><polygon class="cls-21" points="135.61 79.42 135.61 35.91 137.15 35.91 128.4 18.4 186.12 18.4 196.63 28.92 196.63 47.9 195.62 48.91 196.63 49.93 196.63 68.91 186.12 79.42 135.61 79.42"/><path class="cls-21" d="M198.65,79.43,188.14,68.91v-40L198.65,18.4h40l10.52,10.52v40L238.64,79.43Zm24.5-26v-9h-9v9Z"/><polygon class="cls-21" points="251.18 79.42 240.66 68.91 240.66 28.92 251.18 18.4 308.9 18.4 295.89 44.41 266.67 44.41 266.67 53.42 301.69 53.42 301.69 79.42 251.18 79.42"/><path class="cls-21" d="M303.71,79.43,293.19,68.91v-40L303.71,18.4h40l10.52,10.52v40L343.7,79.43Zm24.5-26v-9h-9v9Z"/><path class="cls-21" d="M345.72,79.43V35.91h1.54L338.51,18.4h57.71l10.52,10.52v40L396.22,79.43Zm35-26v-9h-9v9Z"/><polygon class="cls-21" points="408.76 79.42 398.24 68.91 398.24 28.92 408.76 18.4 466.48 18.4 457.73 35.91 459.27 35.91 459.27 79.42 408.76 79.42"/><polygon class="cls-22" points="67.83 78.63 55.76 66.56 55.76 78.63 29.75 78.63 29.75 35.11 31.3 35.11 22.54 17.6 80.26 17.6 90.78 28.12 90.78 50.6 83.69 57.69 104.62 78.63 67.83 78.63"/><path class="cls-22" d="M92.8,78.63,82.28,68.11v-40L92.8,17.6h40l10.52,10.52v40L132.79,78.63Zm24.5-26v-9h-9v9Z"/><polygon class="cls-22" points="134.81 78.63 134.81 35.11 136.35 35.11 127.6 17.6 185.32 17.6 195.83 28.12 195.83 47.1 194.82 48.11 195.83 49.13 195.83 68.11 185.32 78.63 134.81 78.63"/><path class="cls-22" d="M197.85,78.63,187.34,68.11v-40L197.85,17.6h40l10.52,10.52v40L237.84,78.63Zm24.5-26v-9h-9v9Z"/><polygon class="cls-22" points="250.38 78.63 239.86 68.11 239.86 28.12 250.38 17.6 308.1 17.6 295.1 43.61 265.87 43.61 265.87 52.62 300.89 52.62 300.89 78.63 250.38 78.63"/><path class="cls-22" d="M302.91,78.63,292.39,68.11v-40L302.91,17.6h40l10.52,10.52v40L342.9,78.63Zm24.5-26v-9h-9v9Z"/><path class="cls-22" d="M344.92,78.63V35.11h1.54L337.71,17.6h57.71l10.52,10.52v40L395.42,78.63Zm35-26v-9h-9v9Z"/><polygon class="cls-22" points="407.96 78.63 397.44 68.11 397.44 28.12 407.96 17.6 465.68 17.6 456.93 35.11 458.47 35.11 458.47 78.63 407.96 78.63"/><polygon class="cls-23" points="67.03 77.83 54.96 65.75 54.96 77.83 28.95 77.83 28.95 34.31 30.5 34.31 21.74 16.8 79.46 16.8 89.98 27.32 89.98 49.8 82.89 56.89 103.82 77.83 67.03 77.83"/><path class="cls-23" d="M92,77.83,81.48,67.31v-40L92,16.8h40l10.52,10.52v40L132,77.83Zm24.5-26v-9h-9v9Z"/><polygon class="cls-23" points="134.01 77.83 134.01 34.31 135.55 34.31 126.8 16.8 184.52 16.8 195.03 27.32 195.03 46.3 194.02 47.31 195.03 48.33 195.03 67.31 184.52 77.83 134.01 77.83"/><path class="cls-23" d="M197.05,77.83,186.54,67.31v-40L197.05,16.8h40l10.52,10.52v40L237,77.83Zm24.5-26v-9h-9v9Z"/><polygon class="cls-23" points="249.58 77.83 239.06 67.31 239.06 27.32 249.58 16.8 307.3 16.8 294.3 42.81 265.07 42.81 265.07 51.82 300.09 51.82 300.09 77.83 249.58 77.83"/><path class="cls-23" d="M302.11,77.83,291.59,67.31v-40L302.11,16.8h40l10.52,10.52v40L342.1,77.83Zm24.5-26v-9h-9v9Z"/><path class="cls-23" d="M344.12,77.83V34.31h1.54L336.91,16.8h57.71l10.52,10.52v40L394.62,77.83Zm35-26v-9h-9v9Z"/><polygon class="cls-23" points="407.16 77.83 396.64 67.31 396.64 27.32 407.16 16.8 464.88 16.8 456.13 34.31 457.67 34.31 457.67 77.83 407.16 77.83"/><polygon class="cls-24" points="66.23 77.03 54.16 64.95 54.16 77.03 28.16 77.03 28.16 33.51 29.7 33.51 20.94 16 78.66 16 89.18 26.52 89.18 49 82.09 56.09 103.02 77.03 66.23 77.03"/><path class="cls-24" d="M91.2,77,80.68,66.51v-40L91.2,16h40l10.52,10.52v40L131.19,77Zm24.5-26V42h-9v9Z"/><polygon class="cls-24" points="133.21 77.03 133.21 33.51 134.75 33.51 126 16 183.72 16 194.23 26.52 194.23 45.5 193.22 46.51 194.23 47.53 194.23 66.51 183.72 77.03 133.21 77.03"/><path class="cls-24" d="M196.25,77,185.74,66.51v-40L196.25,16h40l10.52,10.52v40L236.24,77Zm24.5-26V42h-9v9Z"/><polygon class="cls-24" points="248.78 77.03 238.26 66.51 238.26 26.52 248.78 16 306.5 16 293.5 42.01 264.27 42.01 264.27 51.02 299.29 51.02 299.29 77.03 248.78 77.03"/><path class="cls-24" d="M301.31,77,290.79,66.51v-40L301.31,16h40l10.52,10.52v40L341.3,77Zm24.5-26V42h-9v9Z"/><path class="cls-24" d="M343.32,77V33.51h1.54L336.11,16h57.71l10.52,10.52v40L393.82,77Zm35-26V42h-9v9Z"/><polygon class="cls-24" points="406.36 77.03 395.84 66.51 395.84 26.52 406.36 16 464.08 16 455.32 33.51 456.87 33.51 456.87 77.03 406.36 77.03"/><polygon class="cls-25" points="65.43 76.22 53.36 64.16 53.36 76.22 27.36 76.22 27.36 32.71 28.9 32.71 20.14 15.2 77.86 15.2 88.38 25.72 88.38 48.2 81.29 55.29 102.22 76.22 65.43 76.22"/><path class="cls-25" d="M90.4,76.23,79.88,65.71v-40L90.4,15.2h40l10.52,10.52v40L130.39,76.23Zm24.5-26v-9h-9v9Z"/><polygon class="cls-25" points="132.41 76.22 132.41 32.71 133.95 32.71 125.2 15.2 182.92 15.2 193.43 25.72 193.43 44.7 192.42 45.71 193.43 46.73 193.43 65.71 182.92 76.22 132.41 76.22"/><path class="cls-25" d="M195.45,76.23,184.94,65.71v-40L195.45,15.2h40L246,25.72v40L235.44,76.23Zm24.5-26v-9h-9v9Z"/><polygon class="cls-25" points="247.98 76.22 237.46 65.71 237.46 25.72 247.98 15.2 305.7 15.2 292.69 41.21 263.47 41.21 263.47 50.22 298.49 50.22 298.49 76.22 247.98 76.22"/><path class="cls-25" d="M300.51,76.23,290,65.71v-40L300.51,15.2h40L351,25.72v40L340.5,76.23Zm24.5-26v-9h-9v9Z"/><path class="cls-25" d="M342.52,76.23V32.71h1.54L335.31,15.2H393l10.52,10.52v40L393,76.23Zm35-26v-9h-9v9Z"/><polygon class="cls-25" points="405.56 76.22 395.04 65.71 395.04 25.72 405.56 15.2 463.28 15.2 454.52 32.71 456.07 32.71 456.07 76.22 405.56 76.22"/><polygon class="cls-26" points="64.63 75.42 52.56 63.35 52.56 75.42 26.55 75.42 26.55 31.91 28.1 31.91 19.34 14.4 77.06 14.4 87.58 24.92 87.58 47.4 80.49 54.49 101.42 75.42 64.63 75.42"/><path class="cls-26" d="M89.6,75.43,79.08,64.91v-40L89.6,14.4h40l10.52,10.52v40L129.59,75.43Zm24.5-26v-9h-9v9Z"/><polygon class="cls-26" points="131.61 75.42 131.61 31.91 133.15 31.91 124.4 14.4 182.12 14.4 192.63 24.92 192.63 43.9 191.62 44.91 192.63 45.93 192.63 64.91 182.12 75.42 131.61 75.42"/><path class="cls-26" d="M194.65,75.43,184.14,64.91v-40L194.65,14.4h40l10.52,10.52v40L234.64,75.43Zm24.5-26v-9h-9v9Z"/><polygon class="cls-26" points="247.18 75.42 236.66 64.91 236.66 24.92 247.18 14.4 304.9 14.4 291.89 40.41 262.67 40.41 262.67 49.42 297.69 49.42 297.69 75.42 247.18 75.42"/><path class="cls-26" d="M299.71,75.43,289.19,64.91v-40L299.71,14.4h40l10.52,10.52v40L339.7,75.43Zm24.5-26v-9h-9v9Z"/><path class="cls-26" d="M341.72,75.43V31.91h1.54L334.51,14.4h57.71l10.52,10.52v40L392.22,75.43Zm35-26v-9h-9v9Z"/><polygon class="cls-26" points="404.76 75.42 394.24 64.91 394.24 24.92 404.76 14.4 462.48 14.4 453.73 31.91 455.27 31.91 455.27 75.42 404.76 75.42"/><polygon class="cls-27" points="63.83 74.63 51.76 62.55 51.76 74.63 25.75 74.63 25.75 31.11 27.3 31.11 18.54 13.6 76.26 13.6 86.78 24.12 86.78 46.6 79.69 53.69 100.62 74.63 63.83 74.63"/><path class="cls-27" d="M88.8,74.63,78.28,64.11v-40L88.8,13.6h40l10.52,10.52v40L128.79,74.63Zm24.5-26v-9h-9v9Z"/><polygon class="cls-27" points="130.81 74.63 130.81 31.11 132.35 31.11 123.6 13.6 181.32 13.6 191.83 24.12 191.83 43.1 190.82 44.11 191.83 45.13 191.83 64.11 181.32 74.63 130.81 74.63"/><path class="cls-27" d="M193.85,74.63,183.34,64.11v-40L193.85,13.6h40l10.52,10.52v40L233.84,74.63Zm24.5-26v-9h-9v9Z"/><polygon class="cls-27" points="246.38 74.63 235.86 64.11 235.86 24.12 246.38 13.6 304.1 13.6 291.1 39.61 261.87 39.61 261.87 48.62 296.89 48.62 296.89 74.63 246.38 74.63"/><path class="cls-27" d="M298.91,74.63,288.39,64.11v-40L298.91,13.6h40l10.52,10.52v40L338.9,74.63Zm24.5-26v-9h-9v9Z"/><path class="cls-27" d="M340.92,74.63V31.11h1.54L333.71,13.6h57.71l10.52,10.52v40L391.42,74.63Zm35-26v-9h-9v9Z"/><polygon class="cls-27" points="403.96 74.63 393.44 64.11 393.44 24.12 403.96 13.6 461.68 13.6 452.93 31.11 454.47 31.11 454.47 74.63 403.96 74.63"/><polygon class="cls-28" points="63.03 73.83 50.96 61.76 50.96 73.83 24.95 73.83 24.95 30.31 26.5 30.31 17.74 12.8 75.46 12.8 85.98 23.32 85.98 45.8 78.89 52.89 99.82 73.83 63.03 73.83"/><path class="cls-28" d="M88,73.83,77.48,63.31v-40L88,12.8h40l10.52,10.52v40L128,73.83Zm24.5-26v-9h-9v9Z"/><polygon class="cls-28" points="130.01 73.83 130.01 30.31 131.55 30.31 122.8 12.8 180.52 12.8 191.03 23.32 191.03 42.3 190.02 43.31 191.03 44.33 191.03 63.31 180.52 73.83 130.01 73.83"/><path class="cls-28" d="M193.05,73.83,182.54,63.31v-40L193.05,12.8h40l10.52,10.52v40L233,73.83Zm24.5-26v-9h-9v9Z"/><polygon class="cls-28" points="245.58 73.83 235.06 63.31 235.06 23.32 245.58 12.8 303.3 12.8 290.3 38.81 261.07 38.81 261.07 47.82 296.09 47.82 296.09 73.83 245.58 73.83"/><path class="cls-28" d="M298.11,73.83,287.59,63.31v-40L298.11,12.8h40l10.52,10.52v40L338.1,73.83Zm24.5-26v-9h-9v9Z"/><path class="cls-28" d="M340.12,73.83V30.31h1.54L332.91,12.8h57.71l10.52,10.52v40L390.62,73.83Zm35-26v-9h-9v9Z"/><polygon class="cls-28" points="403.16 73.83 392.64 63.31 392.64 23.32 403.16 12.8 460.88 12.8 452.13 30.31 453.67 30.31 453.67 73.83 403.16 73.83"/><polygon class="cls-29" points="62.23 73.03 50.16 60.95 50.16 73.03 24.16 73.03 24.16 29.51 25.7 29.51 16.94 12 74.66 12 85.18 22.52 85.18 45 78.09 52.09 99.02 73.03 62.23 73.03"/><path class="cls-29" d="M87.2,73,76.68,62.51v-40L87.2,12h40l10.52,10.52v40L127.19,73Zm24.5-26V38h-9v9Z"/><polygon class="cls-29" points="129.21 73.03 129.21 29.51 130.75 29.51 122 12 179.72 12 190.23 22.52 190.23 41.5 189.22 42.51 190.23 43.53 190.23 62.51 179.72 73.03 129.21 73.03"/><path class="cls-29" d="M192.25,73,181.74,62.51v-40L192.25,12h40l10.52,10.52v40L232.24,73Zm24.5-26V38h-9v9Z"/><polygon class="cls-29" points="244.78 73.03 234.26 62.51 234.26 22.52 244.78 12 302.5 12 289.5 38.01 260.27 38.01 260.27 47.02 295.29 47.02 295.29 73.03 244.78 73.03"/><path class="cls-29" d="M297.31,73,286.79,62.51v-40L297.31,12h40l10.52,10.52v40L337.3,73Zm24.5-26V38h-9v9Z"/><path class="cls-29" d="M339.32,73V29.51h1.54L332.11,12h57.71l10.52,10.52v40L389.82,73Zm35-26V38h-9v9Z"/><polygon class="cls-29" points="402.36 73.03 391.84 62.51 391.84 22.52 402.36 12 460.08 12 451.32 29.51 452.87 29.51 452.87 73.03 402.36 73.03"/><polygon class="cls-30" points="61.43 72.22 49.36 60.16 49.36 72.22 23.36 72.22 23.36 28.71 24.9 28.71 16.14 11.2 73.86 11.2 84.38 21.72 84.38 44.2 77.29 51.29 98.22 72.22 61.43 72.22"/><path class="cls-30" d="M86.4,72.23,75.88,61.71v-40L86.4,11.2h40l10.52,10.52v40L126.39,72.23Zm24.5-26v-9h-9v9Z"/><polygon class="cls-30" points="128.41 72.22 128.41 28.71 129.95 28.71 121.2 11.2 178.92 11.2 189.43 21.72 189.43 40.7 188.42 41.71 189.43 42.73 189.43 61.71 178.92 72.22 128.41 72.22"/><path class="cls-30" d="M191.45,72.23,180.94,61.71v-40L191.45,11.2h40L242,21.72v40L231.44,72.23Zm24.5-26v-9h-9v9Z"/><polygon class="cls-30" points="243.98 72.22 233.46 61.71 233.46 21.72 243.98 11.2 301.7 11.2 288.69 37.21 259.47 37.21 259.47 46.22 294.49 46.22 294.49 72.22 243.98 72.22"/><path class="cls-30" d="M296.51,72.23,286,61.71v-40L296.51,11.2h40L347,21.72v40L336.5,72.23Zm24.5-26v-9h-9v9Z"/><path class="cls-30" d="M338.52,72.23V28.71h1.54L331.31,11.2H389l10.52,10.52v40L389,72.23Zm35-26v-9h-9v9Z"/><polygon class="cls-30" points="401.56 72.22 391.04 61.71 391.04 21.72 401.56 11.2 459.28 11.2 450.52 28.71 452.07 28.71 452.07 72.22 401.56 72.22"/><polygon class="cls-31" points="60.63 71.42 48.56 59.35 48.56 71.42 22.55 71.42 22.55 27.91 24.1 27.91 15.34 10.4 73.06 10.4 83.58 20.92 83.58 43.4 76.49 50.49 97.42 71.42 60.63 71.42"/><path class="cls-31" d="M85.6,71.43,75.08,60.91v-40L85.6,10.4h40l10.52,10.52v40L125.59,71.43Zm24.5-26v-9h-9v9Z"/><polygon class="cls-31" points="127.61 71.42 127.61 27.91 129.15 27.91 120.4 10.4 178.12 10.4 188.63 20.92 188.63 39.9 187.62 40.91 188.63 41.93 188.63 60.91 178.12 71.42 127.61 71.42"/><path class="cls-31" d="M190.65,71.43,180.14,60.91v-40L190.65,10.4h40l10.52,10.52v40L230.64,71.43Zm24.5-26v-9h-9v9Z"/><polygon class="cls-31" points="243.18 71.42 232.66 60.91 232.66 20.92 243.18 10.4 300.9 10.4 287.89 36.41 258.67 36.41 258.67 45.42 293.69 45.42 293.69 71.42 243.18 71.42"/><path class="cls-31" d="M295.71,71.43,285.19,60.91v-40L295.71,10.4h40l10.52,10.52v40L335.7,71.43Zm24.5-26v-9h-9v9Z"/><path class="cls-31" d="M337.72,71.43V27.91h1.54L330.51,10.4h57.71l10.52,10.52v40L388.22,71.43Zm35-26v-9h-9v9Z"/><polygon class="cls-31" points="400.76 71.42 390.24 60.91 390.24 20.92 400.76 10.4 458.48 10.4 449.73 27.91 451.27 27.91 451.27 71.42 400.76 71.42"/><polygon class="cls-32" points="59.83 70.63 47.76 58.55 47.76 70.63 21.75 70.63 21.75 27.11 23.3 27.11 14.54 9.6 72.26 9.6 82.78 20.12 82.78 42.6 75.69 49.69 96.62 70.63 59.83 70.63"/><path class="cls-32" d="M84.8,70.63,74.28,60.11v-40L84.8,9.6h40l10.52,10.52v40L124.79,70.63Zm24.5-26v-9h-9v9Z"/><polygon class="cls-32" points="126.81 70.63 126.81 27.11 128.35 27.11 119.6 9.6 177.32 9.6 187.83 20.12 187.83 39.1 186.82 40.11 187.83 41.13 187.83 60.11 177.32 70.63 126.81 70.63"/><path class="cls-32" d="M189.85,70.63,179.34,60.11v-40L189.85,9.6h40l10.52,10.52v40L229.84,70.63Zm24.5-26v-9h-9v9Z"/><polygon class="cls-32" points="242.38 70.63 231.86 60.11 231.86 20.12 242.38 9.6 300.1 9.6 287.1 35.61 257.87 35.61 257.87 44.62 292.89 44.62 292.89 70.63 242.38 70.63"/><path class="cls-32" d="M294.91,70.63,284.39,60.11v-40L294.91,9.6h40l10.52,10.52v40L334.9,70.63Zm24.5-26v-9h-9v9Z"/><path class="cls-32" d="M336.92,70.63V27.11h1.54L329.71,9.6h57.71l10.52,10.52v40L387.42,70.63Zm35-26v-9h-9v9Z"/><polygon class="cls-32" points="399.96 70.63 389.44 60.11 389.44 20.12 399.96 9.6 457.68 9.6 448.93 27.11 450.47 27.11 450.47 70.63 399.96 70.63"/><polygon class="cls-33" points="59.03 69.83 46.96 57.76 46.96 69.83 20.95 69.83 20.95 26.31 22.5 26.31 13.74 8.8 71.46 8.8 81.98 19.32 81.98 41.8 74.89 48.89 95.82 69.83 59.03 69.83"/><path class="cls-33" d="M84,69.83,73.48,59.31v-40L84,8.8h40l10.52,10.52v40L124,69.83Zm24.5-26v-9h-9v9Z"/><polygon class="cls-33" points="126.01 69.83 126.01 26.31 127.55 26.31 118.8 8.8 176.52 8.8 187.03 19.32 187.03 38.3 186.02 39.31 187.03 40.33 187.03 59.31 176.52 69.83 126.01 69.83"/><path class="cls-33" d="M189.05,69.83,178.54,59.31v-40L189.05,8.8h40l10.52,10.52v40L229,69.83Zm24.5-26v-9h-9v9Z"/><polygon class="cls-33" points="241.58 69.83 231.06 59.31 231.06 19.32 241.58 8.8 299.3 8.8 286.3 34.81 257.07 34.81 257.07 43.82 292.09 43.82 292.09 69.83 241.58 69.83"/><path class="cls-33" d="M294.11,69.83,283.59,59.31v-40L294.11,8.8h40l10.52,10.52v40L334.1,69.83Zm24.5-26v-9h-9v9Z"/><path class="cls-33" d="M336.12,69.83V26.31h1.54L328.91,8.8h57.71l10.52,10.52v40L386.62,69.83Zm35-26v-9h-9v9Z"/><polygon class="cls-33" points="399.16 69.83 388.64 59.31 388.64 19.32 399.16 8.8 456.88 8.8 448.13 26.31 449.67 26.31 449.67 69.83 399.16 69.83"/><polygon class="cls-34" points="58.23 69.03 46.16 56.95 46.16 69.03 20.16 69.03 20.16 25.51 21.7 25.51 12.94 8 70.66 8 81.18 18.52 81.18 41 74.09 48.09 95.02 69.03 58.23 69.03"/><path class="cls-34" d="M83.2,69,72.68,58.51v-40L83.2,8h40l10.52,10.52v40L123.19,69Zm24.5-26V34h-9v9Z"/><polygon class="cls-34" points="125.21 69.03 125.21 25.51 126.75 25.51 118 8 175.72 8 186.23 18.52 186.23 37.5 185.22 38.51 186.23 39.53 186.23 58.51 175.72 69.03 125.21 69.03"/><path class="cls-34" d="M188.25,69,177.74,58.51v-40L188.25,8h40l10.52,10.52v40L228.24,69Zm24.5-26V34h-9v9Z"/><polygon class="cls-34" points="240.78 69.03 230.26 58.51 230.26 18.52 240.78 8 298.5 8 285.5 34.01 256.27 34.01 256.27 43.02 291.29 43.02 291.29 69.03 240.78 69.03"/><path class="cls-34" d="M293.31,69,282.79,58.51v-40L293.31,8h40l10.52,10.52v40L333.3,69Zm24.5-26V34h-9v9Z"/><path class="cls-34" d="M335.32,69V25.51h1.54L328.11,8h57.71l10.52,10.52v40L385.82,69Zm35-26V34h-9v9Z"/><polygon class="cls-34" points="398.36 69.03 387.84 58.51 387.84 18.52 398.36 8 456.08 8 447.32 25.51 448.87 25.51 448.87 69.03 398.36 69.03"/><text class="cls-35" transform="translate(26.15 63.03)">ROBOCODE</text><polygon class="cls-36" points="59.06 67.03 44.16 52.13 44.16 67.03 22.16 67.03 22.16 27.51 24.94 27.51 16.18 10 69.83 10 79.18 19.35 79.18 40.17 71.26 48.09 90.19 67.03 59.06 67.03"/><path class="cls-36" d="M84,67l-9.35-9.35V19.35L84,10h38.33l9.35,9.35V57.68L122.36,67ZM109.7,45V32h-13V45Z"/><polygon class="cls-36" points="127.21 67.03 127.21 27.51 129.99 27.51 121.23 10 174.89 10 184.23 19.35 184.23 36.67 182.39 38.51 184.23 40.36 184.23 57.68 174.89 67.03 127.21 67.03"/><path class="cls-36" d="M189.08,67l-9.34-9.35V19.35L189.08,10h38.33l9.35,9.35V57.68L227.41,67Zm25.67-22V32h-13V45Z"/><polygon class="cls-36" points="241.61 67.03 232.26 57.68 232.26 19.35 241.61 10 295.26 10 284.26 32.01 254.27 32.01 254.27 45.02 289.29 45.02 289.29 67.03 241.61 67.03"/><path class="cls-36" d="M294.14,67l-9.35-9.35V19.35L294.14,10h38.33l9.35,9.35V57.68L332.47,67Zm25.67-22V32h-13V45Z"/><path class="cls-36" d="M337.32,67V27.51h2.78L331.34,10H385l9.34,9.35V57.68L385,67Zm35-22V32h-13V45Z"/><polygon class="cls-36" points="399.19 67.03 389.84 57.68 389.84 19.35 399.19 10 452.84 10 444.09 27.51 446.87 27.51 446.87 67.03 399.19 67.03"/><path class="cls-37" d="M61.17,28H29.66l-7-14H68.18l7,7V38.51l-7,7H63L80.54,63H60.72L43.21,45.52H40.16V63h-14V31.51h35Z"/><path class="cls-37" d="M78.68,56V21l7-7h35l7,7V56l-7,7h-35Zm14-28V49h21V28Z"/><path class="cls-37" d="M166.23,31.51V28H134.71l-7-14h45.52l7,7V35l-3.5,3.5,3.5,3.5V56l-7,7h-42V31.51Zm0,14h-21V49h21Z"/><path class="cls-37" d="M183.74,56V21l7-7h35l7,7V56l-7,7h-35Zm14-28V49h21V28Z"/><path class="cls-37" d="M250.27,49h35V63h-42l-7-7V21l7-7h45.52l-7,14H250.27Z"/><path class="cls-37" d="M288.79,56V21l7-7h35l7,7V56l-7,7h-35Zm14-28V49h21V28Z"/><path class="cls-37" d="M376.34,28H344.82l-7-14h45.52l7,7V56l-7,7h-42V31.51h14V49h21Z"/><path class="cls-37" d="M407.85,49h35V63h-42l-7-7V21l7-7h45.52l-7,14H407.85Zm35-3.5H411.35v-14h31.52Z"/><path class="cls-38" d="M61.17,28H29.66l-7-14H68.18l7,7V38.51l-7,7H63L80.54,63H60.72L43.21,45.52H40.16V63h-14V31.51h35Z"/><path class="cls-38" d="M78.68,56V21l7-7h35l7,7V56l-7,7h-35Zm14-28V49h21V28Z"/><path class="cls-38" d="M166.23,31.51V28H134.71l-7-14h45.52l7,7V35l-3.5,3.5,3.5,3.5V56l-7,7h-42V31.51Zm0,14h-21V49h21Z"/><path class="cls-38" d="M183.74,56V21l7-7h35l7,7V56l-7,7h-35Zm14-28V49h21V28Z"/><path class="cls-38" d="M250.27,49h35V63h-42l-7-7V21l7-7h45.52l-7,14H250.27Z"/><path class="cls-38" d="M288.79,56V21l7-7h35l7,7V56l-7,7h-35Zm14-28V49h21V28Z"/><path class="cls-38" d="M376.34,28H344.82l-7-14h45.52l7,7V56l-7,7h-42V31.51h14V49h21Z"/><path class="cls-38" d="M407.85,49h35V63h-42l-7-7V21l7-7h45.52l-7,14H407.85Zm35-3.5H411.35v-14h31.52Z"/></g></g></svg>